<svg width="64" height="64" viewBox="0 0 64 64" fill="none" xmlns="http://www.w3.org/2000/svg">
<g filter="url(#filter0_di_1_874)">
<rect x="20" y="7" width="32" height="32" rx="16" fill="#264167"/>
<path fill-rule="evenodd" clip-rule="evenodd" d="M35.8108 29.8983C35.8879 29.9385 35.974 29.959 36.0602 29.9583C36.1464 29.9576 36.2318 29.9365 36.3096 29.8955L38.7922 28.5684C39.4962 28.1931 40.0476 27.7735 40.4777 27.2849C41.4129 26.2205 41.9236 24.8619 41.9144 23.4611L41.885 18.8403C41.8822 18.3081 41.5327 17.8332 41.0157 17.6606L36.3971 16.111C36.119 16.0168 35.8143 16.0189 35.5411 16.1157L30.9401 17.7206C30.4259 17.9001 30.0826 18.3784 30.0854 18.9113L30.1149 23.5287C30.124 24.9315 30.6522 26.2839 31.6028 27.3375C32.0371 27.8192 32.5933 28.2327 33.305 28.6018L35.8108 29.8983ZM35.1536 24.4675C35.2572 24.5671 35.3917 24.6162 35.5262 24.6149C35.6607 24.6142 35.7945 24.5637 35.8968 24.4627L38.6099 21.7879C38.8138 21.5867 38.8117 21.2632 38.6057 21.0647C38.3991 20.8661 38.0663 20.8675 37.8625 21.0688L35.5185 23.3792L34.5588 22.4566C34.3522 22.2581 34.0201 22.2601 33.8156 22.4614C33.6117 22.6627 33.6138 22.9861 33.8205 23.1847L35.1536 24.4675Z" fill="#D9D9D9"/>
</g>
<defs>
<filter id="filter0_di_1_874" x="0" y="0" width="64" height="64" filterUnits="userSpaceOnUse" color-interpolation-filters="sRGB">
<feFlood flood-opacity="0" result="BackgroundImageFix"/>
<feColorMatrix in="SourceAlpha" type="matrix" values="0 0 0 0 0 0 0 0 0 0 0 0 0 0 0 0 0 0 127 0" result="hardAlpha"/>
<feOffset dx="-4" dy="9"/>
<feGaussianBlur stdDeviation="8"/>
<feComposite in2="hardAlpha" operator="out"/>
<feColorMatrix type="matrix" values="0 0 0 0 1 0 0 0 0 1 0 0 0 0 1 0 0 0 0.24 0"/>
<feBlend mode="normal" in2="BackgroundImageFix" result="effect1_dropShadow_1_874"/>
<feBlend mode="normal" in="SourceGraphic" in2="effect1_dropShadow_1_874" result="shape"/>
<feColorMatrix in="SourceAlpha" type="matrix" values="0 0 0 0 0 0 0 0 0 0 0 0 0 0 0 0 0 0 127 0" result="hardAlpha"/>
<feOffset dy="-2"/>
<feGaussianBlur stdDeviation="3"/>
<feComposite in2="hardAlpha" operator="arithmetic" k2="-1" k3="1"/>
<feColorMatrix type="matrix" values="0 0 0 0 1 0 0 0 0 1 0 0 0 0 1 0 0 0 0.6 0"/>
<feBlend mode="normal" in2="shape" result="effect2_innerShadow_1_874"/>
</filter>
</defs>
</svg>
